<svg width="44" height="18" viewBox="0 0 44 18" fill="none" xmlns="http://www.w3.org/2000/svg">
<path d="M5.76 10.84H1.764L0.96 13H0.372L3.468 4.768H4.068L7.152 13H6.564L5.76 10.84ZM5.592 10.384L3.768 5.476L1.932 10.384H5.592ZM14.5314 13H13.9914L9.04744 5.464V13H8.50744V4.588H9.04744L13.9914 12.1V4.588H14.5314V13ZM23.4353 7.06C23.1953 6.428 22.7953 5.924 22.2353 5.548C21.6833 5.172 21.0273 4.984 20.2673 4.984C19.6033 4.984 19.0033 5.14 18.4673 5.452C17.9313 5.764 17.5073 6.208 17.1953 6.784C16.8833 7.36 16.7273 8.032 16.7273 8.8C16.7273 9.568 16.8833 10.24 17.1953 10.816C17.5073 11.392 17.9313 11.836 18.4673 12.148C19.0033 12.452 19.6033 12.604 20.2673 12.604C20.9073 12.604 21.4873 12.46 22.0073 12.172C22.5273 11.884 22.9433 11.476 23.2553 10.948C23.5673 10.412 23.7393 9.788 23.7713 9.076H20.0153V8.62H24.3233V8.98C24.2993 9.764 24.1113 10.468 23.7593 11.092C23.4073 11.716 22.9273 12.204 22.3193 12.556C21.7113 12.908 21.0273 13.084 20.2673 13.084C19.4913 13.084 18.7913 12.904 18.1673 12.544C17.5433 12.176 17.0553 11.668 16.7033 11.02C16.3513 10.364 16.1753 9.624 16.1753 8.8C16.1753 7.968 16.3513 7.228 16.7033 6.58C17.0553 5.924 17.5433 5.416 18.1673 5.056C18.7913 4.688 19.4913 4.504 20.2673 4.504C21.1713 4.504 21.9513 4.732 22.6073 5.188C23.2713 5.636 23.7553 6.26 24.0593 7.06H23.4353ZM26.4967 5.032V8.548H29.8567V9.004H26.4967V12.544H30.2167V13H25.9567V4.576H30.2167V5.032H26.4967ZM32.3912 12.544H35.5232V13H31.8512V4.576H32.3912V12.544ZM41.5256 10.84H37.5296L36.7256 13H36.1376L39.2336 4.768H39.8336L42.9176 13H42.3296L41.5256 10.84ZM41.3576 10.384L39.5336 5.476L37.6976 10.384H41.3576Z" fill="black"/>
</svg>
